<svg width="26" height="25" viewBox="0 0 26 25" fill="none" xmlns="http://www.w3.org/2000/svg">
<g clip-path="url(#clip0_5830_62427)">
<path d="M10.0654 1.50439C15.1921 1.50448 19.3301 5.60274 19.3301 10.6353C19.3299 15.6676 15.192 19.7651 10.0654 19.7651C4.93878 19.7651 0.800019 15.6676 0.799805 10.6353C0.799805 5.60269 4.93865 1.50439 10.0654 1.50439Z" stroke="#17191B" stroke-width="1.54"/>
<path d="M12.6748 8.21143C12.7985 7.80456 13.2289 7.57501 13.6357 7.69873C14.0424 7.82248 14.2719 8.25199 14.1484 8.65869L13.7812 9.86572H14.5254C14.9507 9.86572 15.2959 10.21 15.2959 10.6353C15.2957 11.0602 14.9513 11.4045 14.5264 11.4048H13.4111C13.3785 11.4048 13.346 11.4019 13.3145 11.3979L12.4756 14.1587C12.3769 14.4829 12.0782 14.7046 11.7393 14.7046C11.4003 14.7046 11.1016 14.4829 11.0029 14.1587L10.0664 11.0806L9.13086 14.1587C9.03224 14.4828 8.73332 14.7044 8.39453 14.7046C8.05559 14.7046 7.75588 14.4829 7.65723 14.1587L6.81738 11.3979C6.78607 11.4018 6.75405 11.4048 6.72168 11.4048H5.60645C5.18138 11.4047 4.83708 11.0603 4.83691 10.6353C4.83691 10.2101 5.18128 9.86583 5.60645 9.86572H6.35254L5.98535 8.65869C5.8618 8.25191 6.09129 7.82244 6.49805 7.69873C6.90484 7.57518 7.33431 7.80465 7.45801 8.21143L8.39355 11.2886L9.33008 8.21143L9.37598 8.09424C9.50392 7.83471 9.76997 7.66563 10.0664 7.66553C10.4054 7.66553 10.7051 7.88712 10.8037 8.21143L11.7393 11.2886L12.6748 8.21143Z" fill="#17191B"/>
<path d="M21.216 10.0848H16.1985V16.1348H12.8535L18.4285 22.7348L24.0035 16.1348H21.216V10.0848Z" fill="#FFE6C3" stroke="#17191B" stroke-width="1.54" stroke-linejoin="round"/>
</g>
<defs>
<clipPath id="clip0_5830_62427">
<rect width="25.3" height="24.2" fill="white"/>
</clipPath>
</defs>
</svg>
