<svg width="40" height="40" viewBox="0 0 40 40" fill="none" xmlns="http://www.w3.org/2000/svg">
<rect width="40" height="40" rx="16" fill="#06C755"/>
<path d="M21.9497 15.0147C21.9497 15.0147 20.0268 15.0147 18.2915 16.6824V10H14V27.5514H18.3384V26.1827C18.3384 26.1827 19.3585 28 21.9497 28C21.9497 28 28 27.77 28 21.4326C28 21.4326 27.7772 15.0262 21.9497 15.0262M21 24.2735C19.4757 24.2735 18.2446 23.0658 18.2446 21.5706C18.2446 20.0754 19.4757 18.8677 21 18.8677C22.5243 18.8677 23.7554 20.0754 23.7554 21.5706C23.7554 23.0658 22.5243 24.2735 21 24.2735Z" fill="white"/>
</svg>
