<svg width="90" height="81" viewBox="0 0 90 81" fill="none" xmlns="http://www.w3.org/2000/svg">
<path d="M25.1597 44.1557C36.6453 44.1557 45.9562 34.9067 45.9562 23.4974C45.9562 12.0882 36.6453 2.83911 25.1597 2.83911C13.6742 2.83911 4.36328 12.0882 4.36328 23.4974C4.36328 34.9067 13.6742 44.1557 25.1597 44.1557Z" stroke="white" stroke-width="1.5" stroke-linecap="round" stroke-linejoin="round"/>
<path d="M19.873 28.7422C19.873 31.6443 22.2388 33.9869 25.1529 33.9869C28.0669 33.9869 30.4327 31.6369 30.4327 28.7422C30.4327 25.8474 28.0669 23.4974 25.1529 23.4974C22.2388 23.4974 19.873 21.1473 19.873 18.2526C19.873 15.3579 22.2388 13.0078 25.1529 13.0078C28.0669 13.0078 30.4327 15.3579 30.4327 18.2526" stroke="white" stroke-width="1.5" stroke-linecap="round" stroke-linejoin="round"/>
<path d="M25.1602 13.0003V9.82959" stroke="white" stroke-width="1.5" stroke-linecap="round" stroke-linejoin="round"/>
<path d="M25.1602 33.9944V37.1651" stroke="white" stroke-width="1.5" stroke-linecap="round" stroke-linejoin="round"/>
<path d="M87.4887 65.6797C85.521 71.6481 81.3752 76.6542 75.9902 79.7503" stroke="white" stroke-width="1.5" stroke-linecap="round" stroke-linejoin="round"/>
<path d="M88.7512 57.8086C88.7512 58.4129 88.7287 59.0172 88.6836 59.6141" stroke="white" stroke-width="1.5" stroke-linecap="round" stroke-linejoin="round"/>
<path d="M63.2379 78.467C74.7234 78.467 84.0343 69.218 84.0343 57.8087C84.0343 46.3994 74.7234 37.1504 63.2379 37.1504C51.7523 37.1504 42.4414 46.3994 42.4414 57.8087C42.4414 69.218 51.7523 78.467 63.2379 78.467Z" stroke="#EF8200" stroke-width="1.5" stroke-linecap="round" stroke-linejoin="round"/>
<path d="M38.9097 71.4539H14.9288V55.6301L15.1842 55.8837C15.6423 56.3388 16.2506 56.5701 16.8515 56.5701C17.4523 56.5701 18.0607 56.3388 18.5188 55.8837C19.4426 54.9661 19.4426 53.4889 18.5188 52.5712L14.2378 48.3187C14.1252 48.2068 14.005 48.1098 13.8773 48.0203C13.8247 47.983 13.7647 47.9606 13.7121 47.9307C13.637 47.886 13.5544 47.8412 13.4718 47.8039C13.3967 47.7741 13.3216 47.7591 13.2465 47.7368C13.1789 47.7144 13.1112 47.692 13.0361 47.6771C12.8934 47.6472 12.7433 47.6323 12.5931 47.6323C12.5931 47.6323 12.578 47.6323 12.5705 47.6323C12.563 47.6323 12.5555 47.6323 12.548 47.6323C12.3978 47.6323 12.2551 47.6472 12.1049 47.6771C12.0298 47.692 11.9622 47.7218 11.8946 47.7368C11.8195 47.7591 11.7369 47.7741 11.6618 47.8039C11.5791 47.8412 11.504 47.886 11.4289 47.9233C11.3689 47.9531 11.3087 47.983 11.2562 48.0203C11.1285 48.1023 11.0083 48.2068 10.8957 48.3112L6.61471 52.5637C5.69093 53.4814 5.69093 54.9586 6.61471 55.8762C7.53099 56.7939 9.02557 56.7939 9.94936 55.8762L10.2047 55.6226V73.7891C10.2047 75.0798 11.2637 76.1317 12.563 76.1317H38.9022C40.2015 76.1317 41.2605 75.0798 41.2605 73.7891C41.2605 72.4984 40.2015 71.4464 38.9022 71.4464L38.9097 71.4539Z" stroke="white" stroke-width="1.5" stroke-linecap="round" stroke-linejoin="round"/>
<path d="M85.2805 25.4C84.3567 24.4823 82.8696 24.4823 81.9459 25.4L81.6905 25.6536V7.48716C81.6905 6.19648 80.6315 5.14453 79.3322 5.14453H52.9931C51.6938 5.14453 50.6348 6.19648 50.6348 7.48716C50.6348 8.77784 51.6938 9.82977 52.9931 9.82977H76.9739V25.6536L76.7186 25.4C75.7948 24.4823 74.3078 24.4823 73.384 25.4C72.4602 26.3176 72.4602 27.7948 73.384 28.7125L77.6649 32.965C77.7776 33.0769 77.8977 33.1739 78.0254 33.256C78.063 33.2783 78.1005 33.2933 78.1306 33.3156C78.2282 33.3753 78.3258 33.4275 78.431 33.4723C78.4835 33.4947 78.5361 33.5022 78.5887 33.5245C78.6788 33.5544 78.769 33.5917 78.8666 33.6066C79.0168 33.6364 79.1745 33.6514 79.3322 33.6514C79.49 33.6514 79.6477 33.6364 79.7979 33.6066C79.8955 33.5842 79.9856 33.5544 80.0758 33.5245C80.1283 33.5096 80.1884 33.4947 80.241 33.4723C80.3387 33.435 80.4288 33.3753 80.5189 33.3231C80.5565 33.3007 80.6015 33.2783 80.6466 33.256C80.7742 33.1739 80.8944 33.0769 80.9995 32.965L85.2805 28.7125C86.2043 27.7948 86.2043 26.3176 85.2805 25.4Z" stroke="white" stroke-width="1.5" stroke-linecap="round" stroke-linejoin="round"/>
<path d="M13.1348 1.14565C13.3901 1.01136 13.6455 0.877074 13.9084 0.750244L13.1348 1.14565Z" fill="#20284F"/>
<path d="M13.1348 1.14565C13.3901 1.01136 13.6455 0.877074 13.9084 0.750244" stroke="white" stroke-width="1.5" stroke-linecap="round" stroke-linejoin="round"/>
<path d="M0.75 16.104C1.85404 12.508 3.74666 9.24777 6.22511 6.52466L0.75 16.104Z" fill="#20284F"/>
<path d="M0.75 16.104C1.85404 12.508 3.74666 9.24777 6.22511 6.52466" stroke="white" stroke-width="1.5" stroke-linecap="round" stroke-linejoin="round"/>
<path d="M58.3027 63.6801C58.3027 66.5823 60.6685 68.9249 63.5826 68.9249C66.4966 68.9249 68.8624 66.5748 68.8624 63.6801C68.8624 60.7854 66.4966 58.4354 63.5826 58.4354C60.6685 58.4354 58.3027 56.0853 58.3027 53.1906C58.3027 50.2959 60.6685 47.9458 63.5826 47.9458C66.4966 47.9458 68.8624 50.2959 68.8624 53.1906" stroke="#EF8200" stroke-width="1.5" stroke-linecap="round" stroke-linejoin="round"/>
<path d="M63.5898 47.9383V44.7676" stroke="#EF8200" stroke-width="1.5" stroke-linecap="round" stroke-linejoin="round"/>
<path d="M63.5898 68.9324V72.1031" stroke="#EF8200" stroke-width="1.5" stroke-linecap="round" stroke-linejoin="round"/>
</svg>
